HIERARCHY
ROOT root
{
	OFFSET	0	13.1	24.9
	CHANNELS 6  Xposition Yposition Zposition Xrotation Yrotation Zrotation
	JOINT spine_1
	{
		OFFSET	0	9.99999	0
		CHANNELS 3  Xrotation Yrotation Zrotation
		JOINT spine_2
		{
			OFFSET	0	112	-10
			CHANNELS 3  Xrotation Yrotation Zrotation
			JOINT spine_3
			{
				OFFSET	0	206.5	19.3
				CHANNELS 3  Xrotation Yrotation Zrotation
				JOINT spine_4
				{
					OFFSET	0	110.4	14.6
					CHANNELS 3  Xrotation Yrotation Zrotation
					JOINT neck_1
					{
						OFFSET	0	71.8	-50.3
						CHANNELS 3  Xrotation Yrotation Zrotation
						JOINT neck_2
						{
							OFFSET	0	86.2	-25.8
							CHANNELS 3  Xrotation Yrotation Zrotation
							JOINT head_ee
							{
								OFFSET	0	179.8	-8.7
								CHANNELS 3  Xrotation Yrotation Zrotation
								End Site
								{
									OFFSET	1	0	0
								}
							}
						}
					}
					JOINT left_clavicle
					{
						OFFSET	-43.2	22.4	-70.8
						CHANNELS 3  Xrotation Yrotation Zrotation
						JOINT left_shoulder
						{
							OFFSET	-93.9	-5.79999	48.7
							CHANNELS 3  Xrotation Yrotation Zrotation
							JOINT left_elbow
							{
								OFFSET	-291.4	-30.8	15.2
								CHANNELS 3  Xrotation Yrotation Zrotation
								JOINT left_lowarm_twist
								{
									OFFSET	-110.7	-3.89999	13.6
									CHANNELS 3  Xrotation Yrotation Zrotation
									JOINT left_hand
									{
										OFFSET	-110.7	-3.89999	13.6
										CHANNELS 3  Xrotation Yrotation Zrotation
										JOINT left_ee
										{
											OFFSET	-80.8	-5.10001	12.1
											CHANNELS 3  Xrotation Yrotation Zrotation
											End Site
											{
												OFFSET	1	0	0
											}
										}
									}
								}
							}
						}
					}
					JOINT right_clavicle
					{
						OFFSET	43.2	22.4	-70.8
						CHANNELS 3  Xrotation Yrotation Zrotation
						JOINT right_shoulder
						{
							OFFSET	93.9	-5.79999	48.7
							CHANNELS 3  Xrotation Yrotation Zrotation
							JOINT right_elbow
							{
								OFFSET	291.4	-30.8	15.2
								CHANNELS 3  Xrotation Yrotation Zrotation
								JOINT right_lowarm_twist
								{
									OFFSET	110.7	-3.89999	13.6
									CHANNELS 3  Xrotation Yrotation Zrotation
									JOINT right_hand
									{
										OFFSET	110.7	-3.89999	13.6
										CHANNELS 3  Xrotation Yrotation Zrotation
										JOINT right_ee
										{
											OFFSET	80.8	-5.10001	12.1
											CHANNELS 3  Xrotation Yrotation Zrotation
											End Site
											{
												OFFSET	1	0	0
											}
										}
									}
								}
							}
						}
					}
				}
			}
		}
	}
	JOINT left_hip
	{
		OFFSET	-82.8	-127.5	0.300001
		CHANNELS 3  Xrotation Yrotation Zrotation
		JOINT left_knee
		{
			OFFSET	-28.2	-396.7	2.2
			CHANNELS 3  Xrotation Yrotation Zrotation
			JOINT left_ankle
			{
				OFFSET	-11.7	-411.3	35.4
				CHANNELS 3  Xrotation Yrotation Zrotation
				JOINT left_toes
				{
					OFFSET	0	-60	-88.6
					CHANNELS 3  Xrotation Yrotation Zrotation
					JOINT left_foot_ee
					{
						OFFSET	-22.5	-16.5	-42.2
						CHANNELS 3  Xrotation Yrotation Zrotation
						End Site
						{
							OFFSET	1	0	0
						}
					}
				}
			}
		}
	}
	JOINT right_hip
	{
		OFFSET	82.8	-127.5	0.300001
		CHANNELS 3  Xrotation Yrotation Zrotation
		JOINT right_knee
		{
			OFFSET	28.2	-396.7	2.2
			CHANNELS 3  Xrotation Yrotation Zrotation
			JOINT right_ankle
			{
				OFFSET	11.7	-411.3	35.4
				CHANNELS 3  Xrotation Yrotation Zrotation
				JOINT right_toes
				{
					OFFSET	0	-60	-88.6
					CHANNELS 3  Xrotation Yrotation Zrotation
					JOINT right_foot_ee
					{
						OFFSET	22.5	-16.5	-42.2
						CHANNELS 3  Xrotation Yrotation Zrotation
						End Site
						{
							OFFSET	1	0	0
						}
					}
				}
			}
		}
	}
}
MOTION
Frames: 13
Frame Time: 0.02
2827.54478691 702.299 -1899.45351326 7.69994531906 60.850245924 6.32420353677 -0.489829 -1.0827 -4.08979 -0.4809 -0.820496 -4.15025 -0.414442 0.10013 -4.22926 -0.438944 -0.568461 -4.19214 -2.81109 -0.425371 4.06588 -2.75049 -3.95286 4.18079 -0.0 0.0 -0.0 10.7878 9.75275 20.3738 -38.4289 -48.8729 49.7697 1.06454 -27.8039 0.263492 57.2478 -1.53512 -6.84831 0.293594 -7.33551 -1.13092 -0.0 0.0 -0.0 5.93261 -21.072 -11.0708 -30.3239 28.1475 -51.2489 0.709751 19.3712 -0.121138 44.8082 0.622687 5.54626 0.514925 -4.83724 -5.41542 0.0 0.0 0.0 9.39544 21.1921 -15.6737 -13.3379 0.315511 2.01796 28.1427 -29.4525 -4.53798 -27.2448 0.0 0.0 -0.0 0.0 -0.0 10.7274 -12.9055 -7.62117 -50.6243 1.27697 -7.41549 35.9942 -6.18151 4.49431 -32.9931 0.0 0.0 0.0 0.0 0.0 
2824.27284634 702.299 -1894.40688739 7.90378502724 61.6661397094 6.09172689751 -0.489829 -1.0827 -4.08979 -0.4809 -0.820496 -4.15025 -0.414442 0.10013 -4.22926 -0.438944 -0.568461 -4.19214 -2.81109 -0.425371 4.06588 -2.75049 -3.95286 4.18079 -0.0 0.0 -0.0 10.7878 9.75275 20.3738 -38.4289 -48.8729 49.7697 1.06454 -27.8039 0.263492 57.2478 -1.53512 -6.84831 0.293594 -7.33551 -1.13092 -0.0 0.0 -0.0 5.93261 -21.072 -11.0708 -30.3239 28.1475 -51.2489 0.709751 19.3712 -0.121138 44.8082 0.622687 5.54626 0.514925 -4.83724 -5.41542 0.0 0.0 0.0 9.39544 21.1921 -15.6737 -13.3379 0.315511 2.01796 28.1427 -29.4525 -4.53798 -27.2448 0.0 0.0 -0.0 0.0 -0.0 10.7274 -12.9055 -7.62117 -50.6243 1.27697 -7.41549 35.9942 -6.18151 4.49431 -32.9931 0.0 0.0 0.0 0.0 0.0 
2787.66994459 707.38 -1878.29274173 8.52373118182 65.2855877975 5.27754445297 -0.370182 -1.17416 -4.19914 -0.36083 -0.904832 -4.26518 -0.286298 0.0327759 -4.35981 -0.312216 -0.655535 -4.31046 -2.71932 -1.31626 4.31205 -2.64043 -5.76521 4.31903 -0.0 0.0 -0.0 9.55842 8.94914 18.1377 -36.3269 -49.5954 50.7467 1.28741 -32.5261 0.375579 57.8481 -1.58613 -6.9059 0.187391 -6.77174 -1.60812 -0.0 0.0 -0.0 5.81089 -21.8046 -10.8505 -32.0219 27.2862 -50.0438 0.681377 18.6514 -0.111895 45.287 0.652431 5.59983 0.332716 -4.4708 -4.06436 0.0 0.0 0.0 5.94968 22.1334 -17.2935 -13.4362 0.316081 2.03303 29.9098 -29.6104 -4.77214 -24.7775 0.0 0.0 -0.0 0.0 -0.0 15.8566 -13.74 -7.35372 -44.6949 0.792142 -6.64264 35.1247 -7.27958 4.4125 -34.8939 0.0 0.0 0.0 0.0 0.0 
2773.54952259 706.623 -1885.5665273 4.1914745877 64.5662527092 9.70616384975 -0.0570936 -1.15499 -4.33909 -0.047049 -0.876814 -4.40362 0.0269227 0.0654147 -4.48942 -0.000615831 -0.643714 -4.4436 -2.43627 -2.01256 4.60514 -2.33483 -7.2677 4.55197 -0.0 0.0 -0.0 8.88117 8.10427 16.9371 -33.1368 -50.5849 52.1616 1.53957 -37.3286 0.520075 58.6507 -1.65528 -6.98207 0.112942 -6.4943 -1.99271 -0.0 0.0 -0.0 5.91471 -22.3289 -10.9711 -33.3631 26.8389 -49.9761 0.6441 17.6963 -0.100267 45.6286 0.673926 5.63789 0.150589 -3.80272 -2.58798 0.0 0.0 0.0 4.69486 22.5743 -18.417 -12.3665 0.308484 1.86908 31.2084 -30.6345 -4.99633 -22.8239 0.0 0.0 -0.0 0.0 -0.0 18.5823 -12.9112 -8.51635 -40.9191 0.526276 -6.12646 35.4215 -7.61994 4.44212 -35.2604 0.0 0.0 0.0 0.0 0.0 
2766.63565643 700.301 -1904.28227807 4.02793417659 63.0653476528 10.4236792067 0.153293 -0.942547 -4.58916 0.164772 -0.64894 -4.63968 0.223423 0.322463 -4.67366 0.193198 -0.418876 -4.66602 -2.2162 -2.59357 4.61107 -2.10195 -8.33024 4.49945 -0.0 0.0 -0.0 8.35833 7.97179 15.9679 -31.4847 -51.1335 53.8974 1.73599 -40.6906 0.643767 58.5566 -1.64712 -6.97319 0.104752 -6.28831 -1.96033 -0.0 0.0 -0.0 6.08989 -22.0317 -11.2442 -33.7559 26.1885 -50.0735 0.557908 15.4494 -0.0756778 46.5098 0.730429 5.73551 -0.125821 -3.50839 -0.640062 0.0 0.0 0.0 4.14659 22.8016 -19.0262 -11.5943 0.301099 1.75083 31.9907 -32.1478 -5.19393 -21.4529 0.0 0.0 -0.0 0.0 -0.0 20.6526 -11.5753 -9.66694 -38.2694 0.360356 -5.75449 35.8061 -7.82549 4.47976 -35.427 0.0 0.0 0.0 0.0 0.0 
2766.04413738 695.057 -1936.40547099 3.11160855325 57.9644442875 11.6537178274 0.261918 -0.776114 -4.72715 0.27422 -0.474091 -4.76683 0.319362 0.512456 -4.76287 0.287803 -0.245293 -4.78402 -2.022 -2.92607 4.67061 -1.89647 -8.98321 4.53681 -0.0 0.0 -0.0 8.00151 7.77109 15.315 -29.9582 -51.5945 55.5726 1.89982 -43.258 0.753362 58.5401 -1.6457 -6.97164 0.104814 -6.16794 -1.90869 -0.0 0.0 -0.0 6.33936 -21.7304 -11.6301 -33.8567 25.8762 -50.2943 0.499122 13.8881 -0.0607901 47.1207 0.770481 5.80267 -0.319969 -3.30929 0.726671 0.0 0.0 0.0 4.16682 22.8211 -19.96 -10.8759 0.292797 1.64091 32.6026 -33.0695 -5.33533 -20.4658 0.0 0.0 -0.0 0.0 -0.0 22.0099 -10.5274 -10.2936 -35.7949 0.221137 -5.40065 36.0567 -7.95952 4.50418 -35.5368 0.0 0.0 0.0 0.0 0.0 
2770.6142795 696.973 -1961.54676989 2.26590848718 53.1235879458 12.5732696389 0.346457 -0.648048 -4.72421 0.358802 -0.346469 -4.75578 0.392708 0.629467 -4.72672 0.361565 -0.124051 -4.76675 -2.32189 -2.38373 5.12742 -2.19202 -8.35473 5.06206 -0.0 0.0 -0.0 7.73283 5.17961 14.9258 -28.6416 -50.6539 55.3386 2.04642 -45.3855 0.855805 59.5275 -1.73204 -7.06417 0.165059 -6.02839 -1.44275 -0.0 0.0 -0.0 6.57124 -21.082 -12.0212 -33.7767 25.6277 -49.9147 0.56413 15.6134 -0.0773438 48.039 0.832024 5.9028 -0.505791 -3.43381 1.90157 0.0 0.0 0.0 3.80931 22.7529 -20.8241 -10.4522 0.287254 1.57613 33.9284 -33.0978 -5.49637 -18.6094 0.0 0.0 -0.0 0.0 -0.0 22.7277 -9.67923 -10.7196 -22.9254 -0.249437 -3.48583 31.5018 -8.7788 4.05131 -39.227 0.0 0.0 0.0 0.0 0.0 
2770.21243542 694.224 -2007.29304422 0.851878760702 45.779810297 14.6787148068 0.333538 -0.866879 -4.94625 0.346974 -0.550781 -4.99123 0.40103 0.476077 -4.99889 0.366317 -0.318358 -5.01138 -3.17607 0.135268 5.53261 -3.07386 -4.05717 5.77101 -0.0 0.0 -0.0 9.9033 -14.4133 19.5029 -21.1025 -42.6515 47.5875 1.72951 -40.5847 0.639543 67.4699 -2.48214 -7.75207 0.124334 -2.71218 -0.311499 -0.0 0.0 -0.0 6.61254 -15.6288 -12.4406 -31.8809 24.0321 -51.1805 0.496869 13.8278 -0.0602503 50.7353 1.02195 6.19106 -0.964851 -5.19171 4.16249 0.0 0.0 0.0 2.49626 23.263 -21.9531 -11.6773 0.301969 1.76353 36.9776 -32.5135 -5.79528 -13.78 0.0 0.0 -0.0 0.0 -0.0 23.9758 -8.21743 -15.3708 -7.98986 -0.245576 -1.20062 25.5869 -11.6463 3.41161 -39.813 0.0 0.0 0.0 0.0 0.0 
2774.78999642 694.224 -2012.72773339 0.840353833205 45.0101399331 14.6949019455 0.333538 -0.866879 -4.94625 0.346974 -0.550781 -4.99123 0.40103 0.476077 -4.99889 0.366317 -0.318358 -5.01138 -3.17607 0.135268 5.53261 -3.07386 -4.05717 5.77101 -0.0 0.0 -0.0 9.9033 -14.4133 19.5029 -21.1025 -42.6515 47.5875 1.72951 -40.5847 0.639543 67.4699 -2.48214 -7.75207 0.124334 -2.71218 -0.311499 -0.0 0.0 -0.0 6.61254 -15.6288 -12.4406 -31.8809 24.0321 -51.1805 0.496869 13.8278 -0.0602503 50.7353 1.02195 6.19106 -0.964851 -5.19171 4.16249 0.0 0.0 0.0 2.49626 23.263 -21.9531 -11.6773 0.301969 1.76353 36.9776 -32.5135 -5.79528 -13.78 0.0 0.0 -0.0 0.0 -0.0 23.9758 -8.21743 -15.3708 -7.98986 -0.245576 -1.20062 25.5869 -11.6463 3.41161 -39.813 0.0 0.0 0.0 0.0 0.0 
2774.77556741 690.805 -2032.16120559 0.227480032463 42.7535023812 16.0592023378 0.401194 -0.873296 -4.96869 0.414751 -0.555764 -5.01403 0.469263 0.469835 -5.02279 0.434226 -0.328282 -5.03399 -2.25624 1.16161 5.34988 -2.1688 -2.12753 5.77027 -0.0 0.0 -0.0 10.7629 -22.136 20.9511 -18.2818 -39.1172 39.0997 1.52585 -37.0817 0.511779 71.0722 -2.85238 -8.02866 0.127738 -0.585838 0.607175 -0.0 0.0 -0.0 6.5681 -13.8741 -12.4565 -30.8732 23.1078 -52.1737 0.433235 12.1128 -0.0459665 51.8256 1.10258 6.30505 -1.18871 -5.99 5.27769 0.0 0.0 0.0 2.43564 23.6455 -23.1537 -11.6391 0.30157 1.75768 36.8272 -31.8602 -5.7292 -12.0495 0.0 0.0 -0.0 0.0 -0.0 24.065 -7.59384 -16.1165 -3.9166 -0.141327 -0.584346 23.8995 -13.3214 3.22315 -39.7142 0.0 0.0 0.0 0.0 0.0 
2768.84784303 682.136 -2048.94800173 0.0946656282577 43.8076633596 16.1798500997 0.239733 -0.861295 -4.9689 0.253298 -0.543773 -5.01348 0.307346 0.495733 -5.01845 0.272346 -0.302024 -5.03378 -1.54999 1.81896 5.09925 -1.47553 -0.802998 5.61919 -0.0 0.0 -0.0 11.4115 -26.8456 21.9461 -16.3715 -36.4893 33.255 1.38842 -34.5176 0.431369 73.3972 -3.10028 -8.19464 0.130382 0.898473 1.24683 -0.0 0.0 -0.0 6.44754 -12.7358 -12.3011 -30.1523 22.3398 -53.1247 0.398929 11.1788 -0.039041 52.763 1.17364 6.40183 -1.34605 -6.55831 6.05297 0.0 0.0 0.0 2.40166 23.8849 -23.2976 -11.6986 0.30219 1.7668 36.7066 -31.5285 -5.69158 -10.8233 0.0 0.0 -0.0 0.0 -0.0 23.6583 -7.07822 -17.812 -0.996497 -0.0397469 -0.147758 22.6977 -14.2929 3.08516 -39.6446 0.0 0.0 0.0 0.0 0.0 
2753.49197788 674.912 -2066.56498157 -1.44627712141 45.299131222 17.3060394316 0.256741 -0.851583 -4.98891 0.270424 -0.532812 -5.03283 0.323651 0.509046 -5.03529 0.288406 -0.291526 -5.05251 0.79306 1.36629 2.76833 0.813718 0.127391 3.13698 -0.0 0.0 -0.0 13.7832 -26.2974 27.4593 -16.5229 -34.0679 32.2489 1.29667 -32.7125 0.380571 69.9277 -2.73287 -7.9433 0.0451155 0.0795532 0.334731 -0.0 0.0 -0.0 5.73338 -11.9806 -11.0986 -30.0328 22.0034 -55.7138 0.464839 12.9675 -0.0528286 53.7179 1.24765 6.49923 -1.44728 -7.08204 6.47679 0.0 0.0 0.0 2.01395 24.2422 -24.2261 -11.7672 0.302891 1.7773 37.5971 -29.9092 -5.66993 -9.17208 0.0 0.0 -0.0 0.0 -0.0 23.9542 -6.79672 -17.4403 2.56979 0.114322 0.377714 21.5357 -14.5657 2.9449 -39.5711 0.0 0.0 0.0 0.0 0.0 
2757.59224295 674.912 -2070.89148546 -1.43150568269 44.7111761234 17.2851516165 0.256741 -0.851583 -4.98891 0.270424 -0.532812 -5.03283 0.323651 0.509046 -5.03529 0.288406 -0.291526 -5.05251 0.79306 1.36629 2.76833 0.813718 0.127391 3.13698 -0.0 0.0 -0.0 13.7832 -26.2974 27.4593 -16.5229 -34.0679 32.2489 1.29667 -32.7125 0.380571 69.9277 -2.73287 -7.9433 0.0451155 0.0795532 0.334731 -0.0 0.0 -0.0 5.73338 -11.9806 -11.0986 -30.0328 22.0034 -55.7138 0.464839 12.9675 -0.0528286 53.7179 1.24765 6.49923 -1.44728 -7.08204 6.47679 0.0 0.0 0.0 2.01395 24.2422 -24.2261 -11.7672 0.302891 1.7773 37.5971 -29.9092 -5.66993 -9.17208 0.0 0.0 -0.0 0.0 -0.0 23.9542 -6.79672 -17.4403 2.56979 0.114322 0.377714 21.5357 -14.5657 2.9449 -39.5711 0.0 0.0 0.0 0.0 0.0 
